<?xml version="1.0" standalone="no"?>
<!DOCTYPE svg PUBLIC "-//W3C//DTD SVG 20010904//EN"
 "http://www.w3.org/TR/2001/REC-SVG-20010904/DTD/svg10.dtd">
<svg version="1.0" xmlns="http://www.w3.org/2000/svg"
 width="474.000000pt" height="474.000000pt" viewBox="0 0 474.000000 474.000000"
 preserveAspectRatio="xMidYMid meet">
<metadata>
Created by potrace 1.14, written by Peter Selinger 2001-2017
</metadata>
<g transform="translate(0.000000,474.000000) scale(0.100000,-0.100000)"
fill="#000000" stroke="none">
<path d="M1323 3569 c-74 -13 -172 -67 -239 -133 -35 -33 -64 -67 -64 -73 0
-7 -4 -13 -8 -13 -13 0 -62 -129 -70 -185 -6 -39 -8 -830 -3 -830 1 0 4 -24 6
-53 8 -112 51 -215 150 -362 103 -152 169 -245 180 -252 5 -4 6 -8 2 -8 -5 0
4 -17 21 -37 16 -21 48 -67 72 -103 24 -36 48 -68 54 -72 6 -4 7 -8 3 -8 -5 0
-2 -6 5 -14 8 -8 26 -28 40 -44 34 -40 108 -87 171 -108 63 -21 178 -24 220
-6 113 48 163 87 250 193 15 19 45 54 67 79 47 54 49 75 12 115 -16 17 -36 42
-46 58 -10 15 -21 27 -25 27 -4 0 -47 -49 -96 -110 -50 -60 -94 -110 -98 -110
-5 0 -6 -4 -3 -8 5 -9 -86 -74 -112 -80 -76 -16 -152 6 -203 57 -25 26 -139
186 -139 196 0 2 -6 13 -14 22 -40 49 -86 114 -86 122 0 4 -9 16 -20 26 -11
10 -20 24 -20 31 0 7 -4 14 -9 16 -19 7 -168 247 -184 298 -29 88 -31 123 -31
546 0 365 2 405 18 450 67 177 269 259 434 175 54 -27 124 -110 147 -172 15
-45 18 -88 20 -328 2 -322 15 -407 78 -526 60 -114 66 -118 105 -74 15 17 37
40 50 52 27 25 28 52 3 92 -17 28 -39 87 -42 110 -1 6 -6 21 -11 35 -6 14 -12
151 -14 305 -5 306 -4 300 -23 365 -30 104 -99 200 -187 261 -43 29 -130 67
-174 76 -45 8 -144 9 -187 2z"/>
<path d="M3105 3565 c-27 -6 -68 -20 -90 -30 -22 -10 -43 -17 -47 -17 -5 1 -8
-2 -8 -8 0 -5 -5 -10 -10 -10 -26 0 -122 -100 -159 -165 -60 -103 -64 -128
-67 -405 -3 -294 -7 -348 -24 -410 -14 -53 -54 -134 -84 -172 -11 -14 -28 -35
-36 -46 -22 -29 -78 -97 -139 -168 l-53 -64 38 -48 c21 -26 47 -56 57 -66 22
-22 17 -27 97 73 19 24 40 48 45 55 6 6 38 45 72 86 100 123 119 159 180 340
10 30 14 101 17 370 2 151 6 284 10 295 23 61 40 93 65 121 37 41 92 81 116
86 11 1 22 6 25 10 9 12 97 16 147 7 107 -20 194 -92 234 -198 21 -54 22 -70
23 -456 1 -220 -2 -422 -7 -450 -8 -52 -35 -132 -59 -175 -15 -28 -89 -142
-98 -150 -3 -3 -23 -32 -45 -65 -39 -58 -45 -66 -73 -100 -7 -8 -10 -15 -7
-15 4 0 0 -6 -7 -14 -7 -7 -19 -22 -25 -32 -166 -250 -215 -301 -296 -314 -66
-10 -163 25 -190 67 -5 8 -16 21 -26 31 -10 9 -49 55 -86 102 -38 47 -71 87
-75 90 -3 3 -25 30 -50 60 -25 30 -49 60 -55 66 -5 7 -26 31 -45 55 -19 24
-52 63 -72 86 l-37 43 -28 -28 c-39 -38 -83 -92 -83 -101 0 -4 28 -41 63 -83
34 -42 76 -93 92 -114 17 -21 39 -47 50 -59 11 -11 47 -54 80 -95 139 -173
222 -255 268 -264 7 -2 19 -6 27 -9 132 -52 310 -9 411 100 20 21 96 126 169
233 73 107 161 236 195 285 111 161 154 260 171 390 4 28 7 223 8 435 1 287
-2 404 -12 460 -14 77 -49 159 -83 196 -10 11 -19 24 -19 30 -2 30 -185 143
-259 159 -58 12 -154 12 -206 0z"/>
<path d="M1394 3113 c-12 -2 -30 -13 -40 -25 -18 -19 -19 -43 -18 -357 0 -380
5 -414 75 -554 39 -79 116 -199 131 -205 4 -2 8 -8 8 -14 0 -6 14 -27 30 -48
17 -21 30 -41 30 -44 0 -3 12 -19 28 -35 80 -83 197 -87 272 -10 14 14 43 47
65 73 22 27 54 63 70 80 17 17 39 43 51 58 25 32 99 118 154 179 22 24 40 47
40 52 0 14 24 7 46 -14 26 -24 24 -26 88 53 20 26 36 55 34 65 -2 9 -22 30
-45 47 -56 39 -128 43 -190 12 -23 -11 -43 -24 -43 -28 0 -4 -15 -23 -32 -42
-18 -19 -43 -47 -55 -63 -12 -15 -39 -47 -60 -70 -21 -23 -52 -59 -69 -80 -18
-21 -47 -55 -66 -75 -34 -37 -87 -102 -99 -120 -12 -19 -35 0 -84 70 -27 41
-54 81 -60 90 -5 10 -13 19 -17 22 -9 7 -99 160 -94 160 2 0 -5 24 -16 53 -19
48 -22 77 -25 362 -2 171 -6 321 -7 335 -2 14 -4 30 -5 36 -1 10 -63 46 -73
43 -1 -1 -13 -4 -24 -6z"/>
<path d="M3162 3103 c-18 -9 -33 -26 -37 -41 -4 -15 -8 -164 -9 -332 -2 -202
-6 -322 -15 -354 -15 -61 -74 -188 -95 -205 -9 -8 -16 -19 -16 -26 0 -8 -3
-15 -7 -17 -5 -1 -21 -23 -38 -48 -16 -25 -32 -47 -35 -50 -3 -3 -19 -27 -36
-53 l-31 -48 -44 50 c-24 28 -49 51 -55 51 -6 0 -17 -11 -24 -25 -7 -14 -17
-25 -22 -25 -4 0 -20 -18 -34 -40 -30 -45 -34 -33 36 -111 56 -62 149 -80 222
-43 32 16 97 81 98 97 0 5 6 15 13 22 29 33 37 45 32 45 -4 0 0 6 7 14 7 7 20
24 28 36 8 12 27 39 42 60 54 76 113 212 134 305 4 17 8 179 10 362 l4 331
-22 26 c-29 32 -66 39 -106 19z"/>
</g>
</svg>
