<?xml version="1.0" standalone="no"?>
<!DOCTYPE svg PUBLIC "-//W3C//DTD SVG 20010904//EN"
 "http://www.w3.org/TR/2001/REC-SVG-20010904/DTD/svg10.dtd">
<svg version="1.0" xmlns="http://www.w3.org/2000/svg"
 width="384.000000pt" height="384.000000pt" viewBox="0 0 384.000000 384.000000"
 preserveAspectRatio="xMidYMid meet">
<metadata>
Created by potrace 1.14, written by Peter Selinger 2001-2017
</metadata>
<g transform="translate(0.000000,384.000000) scale(0.100000,-0.100000)"
fill="#000000" stroke="none">
<path d="M1150 2761 c-94 -31 -174 -103 -216 -196 l-27 -59 1 -320 c1 -340 3
-373 34 -450 19 -49 286 -450 342 -514 39 -44 117 -82 181 -89 67 -7 139 16
192 62 51 44 153 168 153 186 -1 8 -16 32 -35 53 l-35 39 -22 -29 c-67 -85
-142 -166 -168 -179 -57 -30 -130 -15 -176 37 -50 54 -300 428 -323 483 l-26
60 0 325 0 325 28 48 c37 63 93 99 162 105 83 7 122 -5 170 -49 66 -61 73 -91
78 -339 4 -179 8 -225 25 -277 21 -67 67 -153 82 -153 4 0 23 19 41 41 30 39
32 43 20 73 -44 107 -45 109 -50 341 l-6 230 -33 67 c-58 119 -153 180 -287
185 -44 1 -91 -1 -105 -6z"/>
<path d="M2420 2761 c-101 -31 -201 -127 -232 -220 -6 -20 -14 -139 -17 -271
l-6 -236 -32 -64 c-18 -36 -69 -108 -113 -160 -44 -52 -80 -99 -80 -103 0 -11
63 -87 72 -87 4 0 51 53 103 118 158 193 175 245 175 530 0 117 5 210 11 233
49 163 268 205 378 72 17 -21 36 -55 42 -76 6 -23 9 -159 7 -355 -3 -303 -4
-319 -25 -365 -33 -71 -320 -483 -351 -503 -38 -25 -103 -29 -145 -9 -24 11
-86 78 -197 211 -88 107 -165 194 -170 194 -13 0 -71 -73 -68 -87 2 -6 73 -96
159 -200 170 -205 211 -238 307 -250 72 -8 153 19 207 68 44 41 313 426 354
506 46 92 52 153 49 492 l-3 316 -33 67 c-57 117 -171 188 -297 187 -38 0 -81
-4 -95 -8z"/>
<path d="M1203 2424 l-26 -26 7 -231 c8 -256 14 -292 60 -387 38 -77 145 -230
182 -259 40 -31 87 -37 128 -15 19 11 96 90 170 176 75 86 141 160 147 163 5
4 18 0 27 -9 16 -14 21 -11 55 31 41 50 39 61 -14 89 -44 22 -103 18 -136 -10
-16 -13 -89 -94 -163 -180 -74 -86 -137 -156 -140 -156 -12 0 -151 218 -172
270 -20 50 -22 76 -26 298 -4 234 -5 243 -25 257 -30 21 -44 19 -74 -11z"/>
<path d="M2470 2430 c-19 -19 -20 -34 -20 -247 -1 -276 -7 -301 -119 -467
l-73 -108 -37 36 -38 37 -38 -47 -39 -47 46 -43 c56 -53 101 -64 155 -38 42
21 139 152 199 268 54 104 64 169 64 419 0 204 -1 218 -20 237 -11 11 -29 20
-40 20 -11 0 -29 -9 -40 -20z"/>
</g>
</svg>
